<svg width="218" height="61" viewBox="0 0 218 61" fill="none"
    xmlns="http://www.w3.org/2000/svg">
    <path d="M0 20C0 8.9543 8.95431 0 20 0H145V25C145 36.0457 136.046 45 125 45H0V20Z" fill="white"/>
    <path d="M20.695 33V10.18H35.08V14.52H25.84V19.805H33.75V24.145H25.84V33H20.695ZM38.6295 33V15.64H43.7745V33H38.6295ZM41.1845 13.085C40.3212 13.085 39.6212 12.84 39.0845 12.35C38.5478 11.86 38.2795 11.2067 38.2795 10.39C38.2795 9.57333 38.5478 8.92 39.0845 8.43C39.6212 7.94 40.3212 7.695 41.1845 7.695C42.0478 7.695 42.7478 7.94 43.2845 8.43C43.8212 8.92 44.0895 9.57333 44.0895 10.39C44.0895 11.2067 43.8212 11.86 43.2845 12.35C42.7478 12.84 42.0478 13.085 41.1845 13.085ZM48.3023 33V15.64H52.5023L52.8523 17.845H52.9923C53.7157 17.1217 54.5323 16.5033 55.4423 15.99C56.3523 15.4767 57.3907 15.22 58.5573 15.22C60.4707 15.22 61.8473 15.85 62.6873 17.11C63.5273 18.3467 63.9473 20.05 63.9473 22.22V33H58.8023V22.885C58.8023 21.625 58.6273 20.7617 58.2773 20.295C57.9507 19.8283 57.414 19.595 56.6673 19.595C56.014 19.595 55.454 19.7467 54.9873 20.05C54.5207 20.33 54.0073 20.7383 53.4473 21.275V33H48.3023ZM72.7066 33.42C71.6566 33.42 70.735 33.1867 69.9416 32.72C69.1716 32.2533 68.5766 31.6233 68.1566 30.83C67.7366 30.0367 67.5266 29.15 67.5266 28.17C67.5266 26.3033 68.2966 24.8683 69.8366 23.865C71.3766 22.8383 73.8616 22.15 77.2916 21.8C77.2683 21.2867 77.1516 20.855 76.9416 20.505C76.755 20.1317 76.4633 19.8517 76.0666 19.665C75.67 19.455 75.1683 19.35 74.5616 19.35C73.8383 19.35 73.1033 19.4783 72.3566 19.735C71.61 19.9917 70.805 20.365 69.9416 20.855L68.1216 17.495C68.8683 17.0283 69.6383 16.6317 70.4316 16.305C71.225 15.955 72.0416 15.6867 72.8816 15.5C73.745 15.3133 74.6316 15.22 75.5416 15.22C77.035 15.22 78.2833 15.5117 79.2866 16.095C80.3133 16.655 81.095 17.5183 81.6316 18.685C82.1683 19.8283 82.4366 21.2983 82.4366 23.095V33H78.2366L77.8866 31.215H77.7466C77 31.8683 76.2183 32.405 75.4016 32.825C74.585 33.2217 73.6866 33.42 72.7066 33.42ZM74.4216 29.395C75.005 29.395 75.5183 29.2667 75.9616 29.01C76.405 28.7533 76.8483 28.4033 77.2916 27.96V25.02C76.0783 25.1833 75.11 25.3933 74.3866 25.65C73.6866 25.9067 73.185 26.2217 72.8816 26.595C72.6016 26.945 72.4616 27.3417 72.4616 27.785C72.4616 28.3217 72.6366 28.73 72.9866 29.01C73.36 29.2667 73.8383 29.395 74.4216 29.395ZM86.7887 33V15.64H90.9887L91.3387 17.845H91.4787C92.202 17.1217 93.0187 16.5033 93.9287 15.99C94.8387 15.4767 95.877 15.22 97.0437 15.22C98.957 15.22 100.334 15.85 101.174 17.11C102.014 18.3467 102.434 20.05 102.434 22.22V33H97.2887V22.885C97.2887 21.625 97.1137 20.7617 96.7637 20.295C96.437 19.8283 95.9003 19.595 95.1537 19.595C94.5003 19.595 93.9403 19.7467 93.4737 20.05C93.007 20.33 92.4937 20.7383 91.9337 21.275V33H86.7887ZM114.483 33.42C112.85 33.42 111.368 33.0583 110.038 32.335C108.731 31.6117 107.693 30.5733 106.923 29.22C106.176 27.8667 105.803 26.2333 105.803 24.32C105.803 22.4067 106.223 20.7733 107.063 19.42C107.903 18.0667 109.011 17.0283 110.388 16.305C111.765 15.5817 113.246 15.22 114.833 15.22C115.906 15.22 116.863 15.395 117.703 15.745C118.566 16.0717 119.301 16.515 119.908 17.075L117.493 20.26C117.19 20.0033 116.84 19.7933 116.443 19.63C116.07 19.4667 115.638 19.385 115.148 19.385C114.331 19.385 113.62 19.5833 113.013 19.98C112.406 20.3767 111.928 20.9483 111.578 21.695C111.228 22.4417 111.053 23.3167 111.053 24.32C111.053 25.3233 111.228 26.1983 111.578 26.945C111.928 27.6917 112.395 28.2633 112.978 28.66C113.585 29.0567 114.261 29.255 115.008 29.255C115.591 29.255 116.14 29.15 116.653 28.94C117.166 28.73 117.645 28.4617 118.088 28.135L120.118 31.285C119.395 31.9383 118.543 32.4633 117.563 32.86C116.583 33.2333 115.556 33.42 114.483 33.42ZM130.003 33.42C128.346 33.42 126.853 33.0583 125.523 32.335C124.193 31.6117 123.143 30.5733 122.373 29.22C121.603 27.8667 121.218 26.2333 121.218 24.32C121.218 22.43 121.603 20.8083 122.373 19.455C123.166 18.1017 124.193 17.0633 125.453 16.34C126.713 15.5933 128.031 15.22 129.408 15.22C131.065 15.22 132.441 15.5933 133.538 16.34C134.635 17.0633 135.451 18.055 135.988 19.315C136.525 20.575 136.793 21.9867 136.793 23.55C136.793 23.9933 136.77 24.4367 136.723 24.88C136.676 25.3 136.63 25.6383 136.583 25.895H125.208L125.138 22.325H132.383C132.383 21.415 132.161 20.6683 131.718 20.085C131.275 19.4783 130.54 19.175 129.513 19.175C128.953 19.175 128.405 19.3267 127.868 19.63C127.331 19.9333 126.888 20.4583 126.538 21.205C126.188 21.9517 126.025 22.99 126.048 24.32C126.071 25.6267 126.305 26.6533 126.748 27.4C127.215 28.1467 127.798 28.6833 128.498 29.01C129.198 29.3133 129.933 29.465 130.703 29.465C131.38 29.465 132.021 29.3717 132.628 29.185C133.258 28.975 133.876 28.695 134.483 28.345L136.163 31.495C135.3 32.1017 134.32 32.58 133.223 32.93C132.126 33.2567 131.053 33.42 130.003 33.42Z" fill="#0068A3"/>
    <path d="M156.707 33L152.577 10.18H157.932L159.437 20.82C159.6 22.0333 159.752 23.2467 159.892 24.46C160.055 25.65 160.195 26.875 160.312 28.135H160.452C160.662 26.875 160.872 25.6383 161.082 24.425C161.315 23.2117 161.549 22.01 161.782 20.82L164.197 10.18H168.782L171.092 20.82C171.325 21.9867 171.559 23.1883 171.792 24.425C172.025 25.6383 172.247 26.875 172.457 28.135H172.597C172.714 26.875 172.842 25.6383 172.982 24.425C173.145 23.2117 173.297 22.01 173.437 20.82L175.047 10.18H180.087L175.992 33H169.342L167.207 22.64C167.044 21.7767 166.892 20.89 166.752 19.98C166.612 19.07 166.484 18.16 166.367 17.25H166.227C166.11 18.16 165.982 19.07 165.842 19.98C165.725 20.89 165.574 21.7767 165.387 22.64L163.252 33H156.707ZM190.604 33.42C188.947 33.42 187.454 33.0583 186.124 32.335C184.794 31.6117 183.744 30.5733 182.974 29.22C182.204 27.8667 181.819 26.2333 181.819 24.32C181.819 22.43 182.204 20.8083 182.974 19.455C183.767 18.1017 184.794 17.0633 186.054 16.34C187.314 15.5933 188.632 15.22 190.009 15.22C191.665 15.22 193.042 15.5933 194.139 16.34C195.235 17.0633 196.052 18.055 196.589 19.315C197.125 20.575 197.394 21.9867 197.394 23.55C197.394 23.9933 197.37 24.4367 197.324 24.88C197.277 25.3 197.23 25.6383 197.184 25.895H185.809L185.739 22.325H192.984C192.984 21.415 192.762 20.6683 192.319 20.085C191.875 19.4783 191.14 19.175 190.114 19.175C189.554 19.175 189.005 19.3267 188.469 19.63C187.932 19.9333 187.489 20.4583 187.139 21.205C186.789 21.9517 186.625 22.99 186.649 24.32C186.672 25.6267 186.905 26.6533 187.349 27.4C187.815 28.1467 188.399 28.6833 189.099 29.01C189.799 29.3133 190.534 29.465 191.304 29.465C191.98 29.465 192.622 29.3717 193.229 29.185C193.859 28.975 194.477 28.695 195.084 28.345L196.764 31.495C195.9 32.1017 194.92 32.58 193.824 32.93C192.727 33.2567 191.654 33.42 190.604 33.42ZM210.049 33.42C209.279 33.42 208.509 33.2333 207.739 32.86C206.969 32.4633 206.234 31.8917 205.534 31.145H205.394L204.974 33H200.949V8.465H206.094V14.485L205.954 17.145C206.607 16.5383 207.33 16.0717 208.124 15.745C208.917 15.395 209.722 15.22 210.539 15.22C211.939 15.22 213.152 15.5817 214.179 16.305C215.205 17.0283 215.987 18.055 216.524 19.385C217.084 20.6917 217.364 22.2317 217.364 24.005C217.364 25.9883 217.014 27.6917 216.314 29.115C215.614 30.515 214.704 31.5883 213.584 32.335C212.487 33.0583 211.309 33.42 210.049 33.42ZM208.859 29.22C209.442 29.22 209.979 29.045 210.469 28.695C210.982 28.345 211.379 27.7967 211.659 27.05C211.939 26.28 212.079 25.3 212.079 24.11C212.079 23.06 211.962 22.1967 211.729 21.52C211.519 20.82 211.192 20.295 210.749 19.945C210.305 19.595 209.745 19.42 209.069 19.42C208.555 19.42 208.054 19.5483 207.564 19.805C207.097 20.0383 206.607 20.435 206.094 20.995V28.1C206.537 28.4967 207.004 28.7883 207.494 28.975C207.984 29.1383 208.439 29.22 208.859 29.22Z" fill="white"/>
    <path d="M20.03 58L22.25 51.44H23.19L25.41 58H24.53L23.38 54.33C23.26 53.9633 23.1467 53.6 23.04 53.24C22.9333 52.8733 22.8267 52.5 22.72 52.12H22.68C22.58 52.5 22.4767 52.8733 22.37 53.24C22.2633 53.6 22.15 53.9633 22.03 54.33L20.87 58H20.03ZM21.19 56V55.34H24.22V56H21.19ZM30.1816 58.12C29.7483 58.12 29.3583 58.02 29.0116 57.82C28.665 57.62 28.3916 57.33 28.1916 56.95C27.9916 56.57 27.8916 56.1133 27.8916 55.58C27.8916 55.0333 27.9983 54.57 28.2116 54.19C28.4316 53.81 28.7183 53.52 29.0716 53.32C29.4316 53.12 29.8183 53.02 30.2316 53.02C30.5516 53.02 30.825 53.0733 31.0516 53.18C31.285 53.2867 31.485 53.4233 31.6516 53.59L31.2416 54.1C31.1216 53.98 30.9783 53.8867 30.8116 53.82C30.6516 53.7467 30.4683 53.71 30.2616 53.71C29.975 53.71 29.715 53.79 29.4816 53.95C29.255 54.1033 29.075 54.32 28.9416 54.6C28.8083 54.88 28.7416 55.2067 28.7416 55.58C28.7416 55.9467 28.805 56.27 28.9316 56.55C29.0583 56.83 29.235 57.05 29.4616 57.21C29.6883 57.3633 29.9516 57.44 30.2516 57.44C30.4783 57.44 30.6883 57.3967 30.8816 57.31C31.075 57.2233 31.2416 57.1133 31.3816 56.98L31.7416 57.48C31.535 57.6733 31.3016 57.83 31.0416 57.95C30.7816 58.0633 30.495 58.12 30.1816 58.12ZM33.6822 58.09C33.4755 58.09 33.3089 58.05 33.1822 57.97C33.0555 57.8833 32.9622 57.76 32.9022 57.6C32.8422 57.4333 32.8122 57.2333 32.8122 57V50.88H33.6322V57.06C33.6322 57.1933 33.6555 57.2867 33.7022 57.34C33.7489 57.3867 33.8055 57.41 33.8722 57.41C33.8989 57.41 33.9222 57.41 33.9422 57.41C33.9689 57.4033 34.0022 57.3967 34.0422 57.39L34.1622 58.01C34.1022 58.03 34.0322 58.0467 33.9522 58.06C33.8789 58.08 33.7889 58.09 33.6822 58.09ZM37.251 58.12C36.8577 58.12 36.4877 58.02 36.141 57.82C35.801 57.62 35.5243 57.33 35.311 56.95C35.1043 56.57 35.001 56.1133 35.001 55.58C35.001 55.0333 35.1043 54.57 35.311 54.19C35.5243 53.81 35.801 53.52 36.141 53.32C36.4877 53.12 36.8577 53.02 37.251 53.02C37.651 53.02 38.021 53.12 38.361 53.32C38.701 53.52 38.9743 53.81 39.181 54.19C39.3943 54.57 39.501 55.0333 39.501 55.58C39.501 56.1133 39.3943 56.57 39.181 56.95C38.9743 57.33 38.701 57.62 38.361 57.82C38.021 58.02 37.651 58.12 37.251 58.12ZM37.251 57.44C37.531 57.44 37.7777 57.3633 37.991 57.21C38.2043 57.05 38.3677 56.83 38.481 56.55C38.5943 56.27 38.651 55.9467 38.651 55.58C38.651 55.2067 38.5943 54.88 38.481 54.6C38.3677 54.3133 38.2043 54.0933 37.991 53.94C37.7777 53.78 37.531 53.7 37.251 53.7C36.971 53.7 36.7243 53.78 36.511 53.94C36.3043 54.0933 36.141 54.3133 36.021 54.6C35.9077 54.88 35.851 55.2067 35.851 55.58C35.851 55.9467 35.9077 56.27 36.021 56.55C36.141 56.83 36.3043 57.05 36.511 57.21C36.7243 57.3633 36.971 57.44 37.251 57.44ZM42.2009 58.12C41.6876 58.12 41.3109 57.96 41.0709 57.64C40.8376 57.3133 40.7209 56.84 40.7209 56.22V53.14H41.5409V56.11C41.5409 56.5633 41.6109 56.8933 41.7509 57.1C41.8976 57.3 42.1309 57.4 42.4509 57.4C42.6976 57.4 42.9176 57.3367 43.1109 57.21C43.3109 57.0767 43.5276 56.87 43.7609 56.59V53.14H44.5809V58H43.9009L43.8309 57.24H43.8009C43.5809 57.5067 43.3409 57.72 43.0809 57.88C42.8276 58.04 42.5343 58.12 42.2009 58.12ZM47.8804 58.12C47.2671 58.12 46.7771 57.9 46.4104 57.46C46.0504 57.0133 45.8704 56.3867 45.8704 55.58C45.8704 55.0533 45.9671 54.6 46.1604 54.22C46.3604 53.8333 46.6204 53.5367 46.9404 53.33C47.2604 53.1233 47.6071 53.02 47.9804 53.02C48.2671 53.02 48.5104 53.07 48.7104 53.17C48.9171 53.2633 49.1271 53.4 49.3404 53.58L49.3004 52.75V50.88H50.1304V58H49.4504L49.3804 57.43H49.3504C49.1637 57.6167 48.9437 57.78 48.6904 57.92C48.4371 58.0533 48.1671 58.12 47.8804 58.12ZM48.0604 57.43C48.2871 57.43 48.5004 57.3733 48.7004 57.26C48.9004 57.1467 49.1004 56.98 49.3004 56.76V54.22C49.1004 54.0333 48.9037 53.9033 48.7104 53.83C48.5171 53.75 48.3204 53.71 48.1204 53.71C47.8604 53.71 47.6237 53.79 47.4104 53.95C47.2037 54.1033 47.0371 54.32 46.9104 54.6C46.7837 54.8733 46.7204 55.1967 46.7204 55.57C46.7204 56.15 46.8371 56.6067 47.0704 56.94C47.3037 57.2667 47.6337 57.43 48.0604 57.43ZM51.3573 55.81V55.18H53.6573V55.81H51.3573ZM57.0227 58.12C56.7961 58.12 56.5627 58.0667 56.3227 57.96C56.0827 57.8467 55.8527 57.6933 55.6327 57.5H55.6027L55.5327 58H54.8727V50.88H55.6927V52.82L55.6727 53.7C55.8927 53.5067 56.1327 53.3467 56.3927 53.22C56.6594 53.0867 56.9261 53.02 57.1927 53.02C57.6127 53.02 57.9661 53.1233 58.2527 53.33C58.5394 53.53 58.7561 53.8167 58.9027 54.19C59.0494 54.5567 59.1227 54.99 59.1227 55.49C59.1227 56.0433 59.0227 56.5167 58.8227 56.91C58.6294 57.3033 58.3727 57.6033 58.0527 57.81C57.7327 58.0167 57.3894 58.12 57.0227 58.12ZM56.8827 57.43C57.1494 57.43 57.3861 57.3533 57.5927 57.2C57.8061 57.0467 57.9727 56.8267 58.0927 56.54C58.2127 56.2467 58.2727 55.9 58.2727 55.5C58.2727 55.1467 58.2294 54.8367 58.1427 54.57C58.0561 54.2967 57.9194 54.0867 57.7327 53.94C57.5461 53.7867 57.2994 53.71 56.9927 53.71C56.7927 53.71 56.5827 53.7667 56.3627 53.88C56.1494 53.9867 55.9261 54.15 55.6927 54.37V56.92C55.9061 57.1067 56.1161 57.24 56.3227 57.32C56.5361 57.3933 56.7227 57.43 56.8827 57.43ZM61.3834 58.12C61.1167 58.12 60.8734 58.0667 60.6534 57.96C60.44 57.8467 60.27 57.69 60.1434 57.49C60.0167 57.2833 59.9534 57.0333 59.9534 56.74C59.9534 56.1933 60.1934 55.78 60.6734 55.5C61.1534 55.22 61.9134 55.0233 62.9534 54.91C62.9467 54.71 62.9134 54.5167 62.8534 54.33C62.8 54.1433 62.7 53.9933 62.5534 53.88C62.4067 53.7667 62.2034 53.71 61.9434 53.71C61.6634 53.71 61.4 53.7633 61.1534 53.87C60.9067 53.97 60.6867 54.0833 60.4934 54.21L60.1734 53.65C60.32 53.55 60.4934 53.4533 60.6934 53.36C60.8934 53.26 61.11 53.18 61.3434 53.12C61.5767 53.0533 61.8234 53.02 62.0834 53.02C62.4767 53.02 62.7967 53.1033 63.0434 53.27C63.2967 53.43 63.48 53.66 63.5934 53.96C63.7134 54.26 63.7734 54.6133 63.7734 55.02V58H63.0934L63.0234 57.42H62.9934C62.76 57.6133 62.51 57.78 62.2434 57.92C61.9767 58.0533 61.69 58.12 61.3834 58.12ZM61.6134 57.44C61.8534 57.44 62.0767 57.3867 62.2834 57.28C62.4967 57.1733 62.72 57.0167 62.9534 56.81V55.5C62.4067 55.5667 61.9734 55.6533 61.6534 55.76C61.34 55.86 61.1134 55.9867 60.9734 56.14C60.8334 56.2933 60.7634 56.4767 60.7634 56.69C60.7634 56.9567 60.8467 57.15 61.0134 57.27C61.18 57.3833 61.38 57.44 61.6134 57.44ZM66.5724 58.12C66.2191 58.12 65.8824 58.06 65.5624 57.94C65.2491 57.8133 64.9824 57.64 64.7624 57.42L65.1424 56.94C65.3558 57.1133 65.5758 57.2467 65.8024 57.34C66.0358 57.4333 66.3024 57.48 66.6024 57.48C66.9224 57.48 67.1624 57.4067 67.3224 57.26C67.4824 57.1067 67.5624 56.9267 67.5624 56.72C67.5624 56.5533 67.5058 56.4167 67.3924 56.31C67.2858 56.1967 67.1491 56.1033 66.9824 56.03C66.8224 55.95 66.6491 55.8767 66.4624 55.81C66.2224 55.7233 65.9924 55.6233 65.7724 55.51C65.5524 55.39 65.3724 55.2433 65.2324 55.07C65.0991 54.89 65.0324 54.6667 65.0324 54.4C65.0324 54.0067 65.1791 53.68 65.4724 53.42C65.7724 53.1533 66.1858 53.02 66.7124 53.02C67.0124 53.02 67.2924 53.0733 67.5524 53.18C67.8124 53.28 68.0358 53.41 68.2224 53.57L67.8424 54.04C67.6691 53.92 67.4924 53.8267 67.3124 53.76C67.1324 53.6933 66.9324 53.66 66.7124 53.66C66.4058 53.66 66.1791 53.73 66.0324 53.87C65.8924 54.01 65.8224 54.1733 65.8224 54.36C65.8224 54.5067 65.8658 54.63 65.9524 54.73C66.0391 54.8233 66.1591 54.9067 66.3124 54.98C66.4724 55.0533 66.6524 55.1233 66.8524 55.19C67.1058 55.2833 67.3458 55.39 67.5724 55.51C67.8058 55.6233 67.9924 55.7733 68.1324 55.96C68.2791 56.14 68.3524 56.3767 68.3524 56.67C68.3524 56.9367 68.2824 57.18 68.1424 57.4C68.0091 57.6133 67.8091 57.7867 67.5424 57.92C67.2824 58.0533 66.9591 58.12 66.5724 58.12ZM71.4619 58.12C71.0285 58.12 70.6319 58.02 70.2719 57.82C69.9185 57.6133 69.6385 57.3233 69.4319 56.95C69.2252 56.57 69.1219 56.11 69.1219 55.57C69.1219 55.0433 69.2285 54.59 69.4419 54.21C69.6552 53.83 69.9285 53.5367 70.2619 53.33C70.5952 53.1233 70.9485 53.02 71.3219 53.02C71.7352 53.02 72.0852 53.1167 72.3719 53.31C72.6652 53.4967 72.8852 53.76 73.0319 54.1C73.1785 54.44 73.2519 54.84 73.2519 55.3C73.2519 55.3867 73.2485 55.47 73.2419 55.55C73.2419 55.63 73.2319 55.71 73.2119 55.79H69.7119V55.14H72.5119C72.5119 54.6733 72.4085 54.3167 72.2019 54.07C72.0019 53.8167 71.7119 53.69 71.3319 53.69C71.1119 53.69 70.8952 53.7533 70.6819 53.88C70.4685 54 70.2919 54.1967 70.1519 54.47C70.0185 54.7433 69.9519 55.1067 69.9519 55.56C69.9519 55.9733 70.0219 56.32 70.1619 56.6C70.3085 56.88 70.5052 57.0933 70.7519 57.24C70.9985 57.38 71.2685 57.45 71.5619 57.45C71.7952 57.45 72.0119 57.4167 72.2119 57.35C72.4185 57.2833 72.6052 57.1933 72.7719 57.08L73.0719 57.62C72.8585 57.7667 72.6185 57.8867 72.3519 57.98C72.0919 58.0733 71.7952 58.12 71.4619 58.12ZM76.1128 58.12C75.4995 58.12 75.0095 57.9 74.6428 57.46C74.2828 57.0133 74.1028 56.3867 74.1028 55.58C74.1028 55.0533 74.1995 54.6 74.3928 54.22C74.5928 53.8333 74.8528 53.5367 75.1728 53.33C75.4928 53.1233 75.8395 53.02 76.2128 53.02C76.4995 53.02 76.7428 53.07 76.9428 53.17C77.1495 53.2633 77.3595 53.4 77.5728 53.58L77.5328 52.75V50.88H78.3628V58H77.6828L77.6128 57.43H77.5828C77.3961 57.6167 77.1761 57.78 76.9228 57.92C76.6695 58.0533 76.3995 58.12 76.1128 58.12ZM76.2928 57.43C76.5195 57.43 76.7328 57.3733 76.9328 57.26C77.1328 57.1467 77.3328 56.98 77.5328 56.76V54.22C77.3328 54.0333 77.1361 53.9033 76.9428 53.83C76.7495 53.75 76.5528 53.71 76.3528 53.71C76.0928 53.71 75.8561 53.79 75.6428 53.95C75.4361 54.1033 75.2695 54.32 75.1428 54.6C75.0161 54.8733 74.9528 55.1967 74.9528 55.57C74.9528 56.15 75.0695 56.6067 75.3028 56.94C75.5361 57.2667 75.8661 57.43 76.2928 57.43ZM84.1516 58.12C83.925 58.12 83.6916 58.0667 83.4516 57.96C83.2116 57.8467 82.9816 57.6933 82.7616 57.5H82.7316L82.6616 58H82.0016V50.88H82.8216V52.82L82.8016 53.7C83.0216 53.5067 83.2616 53.3467 83.5216 53.22C83.7883 53.0867 84.055 53.02 84.3216 53.02C84.7416 53.02 85.095 53.1233 85.3816 53.33C85.6683 53.53 85.885 53.8167 86.0316 54.19C86.1783 54.5567 86.2516 54.99 86.2516 55.49C86.2516 56.0433 86.1516 56.5167 85.9516 56.91C85.7583 57.3033 85.5016 57.6033 85.1816 57.81C84.8616 58.0167 84.5183 58.12 84.1516 58.12ZM84.0116 57.43C84.2783 57.43 84.515 57.3533 84.7216 57.2C84.935 57.0467 85.1016 56.8267 85.2216 56.54C85.3416 56.2467 85.4016 55.9 85.4016 55.5C85.4016 55.1467 85.3583 54.8367 85.2716 54.57C85.185 54.2967 85.0483 54.0867 84.8616 53.94C84.675 53.7867 84.4283 53.71 84.1216 53.71C83.9216 53.71 83.7116 53.7667 83.4916 53.88C83.2783 53.9867 83.055 54.15 82.8216 54.37V56.92C83.035 57.1067 83.245 57.24 83.4516 57.32C83.665 57.3933 83.8516 57.43 84.0116 57.43ZM88.949 58.12C88.4357 58.12 88.059 57.96 87.819 57.64C87.5857 57.3133 87.469 56.84 87.469 56.22V53.14H88.289V56.11C88.289 56.5633 88.359 56.8933 88.499 57.1C88.6457 57.3 88.879 57.4 89.199 57.4C89.4457 57.4 89.6657 57.3367 89.859 57.21C90.059 57.0767 90.2757 56.87 90.509 56.59V53.14H91.329V58H90.649L90.579 57.24H90.549C90.329 57.5067 90.089 57.72 89.829 57.88C89.5757 58.04 89.2823 58.12 88.949 58.12ZM94.6284 58.12C94.0151 58.12 93.5251 57.9 93.1584 57.46C92.7984 57.0133 92.6184 56.3867 92.6184 55.58C92.6184 55.0533 92.7151 54.6 92.9084 54.22C93.1084 53.8333 93.3684 53.5367 93.6884 53.33C94.0084 53.1233 94.3551 53.02 94.7284 53.02C95.0151 53.02 95.2584 53.07 95.4584 53.17C95.6651 53.2633 95.8751 53.4 96.0884 53.58L96.0484 52.75V50.88H96.8784V58H96.1984L96.1284 57.43H96.0984C95.9118 57.6167 95.6918 57.78 95.4384 57.92C95.1851 58.0533 94.9151 58.12 94.6284 58.12ZM94.8084 57.43C95.0351 57.43 95.2484 57.3733 95.4484 57.26C95.6484 57.1467 95.8484 56.98 96.0484 56.76V54.22C95.8484 54.0333 95.6518 53.9033 95.4584 53.83C95.2651 53.75 95.0684 53.71 94.8684 53.71C94.6084 53.71 94.3718 53.79 94.1584 53.95C93.9518 54.1033 93.7851 54.32 93.6584 54.6C93.5318 54.8733 93.4684 55.1967 93.4684 55.57C93.4684 56.15 93.5851 56.6067 93.8184 56.94C94.0518 57.2667 94.3818 57.43 94.8084 57.43ZM100.155 60.24C99.762 60.24 99.412 60.1867 99.1053 60.08C98.8053 59.98 98.5686 59.8333 98.3953 59.64C98.2286 59.4467 98.1453 59.21 98.1453 58.93C98.1453 58.7233 98.2086 58.5233 98.3353 58.33C98.462 58.1433 98.6353 57.9767 98.8553 57.83V57.79C98.7353 57.71 98.632 57.6067 98.5453 57.48C98.4653 57.3467 98.4253 57.1867 98.4253 57C98.4253 56.7933 98.482 56.6133 98.5953 56.46C98.7153 56.3067 98.8353 56.1867 98.9553 56.1V56.06C98.802 55.9267 98.6586 55.7467 98.5253 55.52C98.392 55.2933 98.3253 55.0367 98.3253 54.75C98.3253 54.3967 98.4086 54.09 98.5753 53.83C98.7486 53.57 98.972 53.37 99.2453 53.23C99.5253 53.09 99.8286 53.02 100.155 53.02C100.289 53.02 100.415 53.0333 100.535 53.06C100.655 53.08 100.759 53.1067 100.845 53.14H102.535V53.77H101.525V53.81C101.645 53.9167 101.742 54.05 101.815 54.21C101.895 54.37 101.935 54.56 101.935 54.78C101.935 55.1267 101.855 55.4267 101.695 55.68C101.535 55.9267 101.322 56.12 101.055 56.26C100.789 56.3933 100.489 56.46 100.155 56.46C100.035 56.46 99.912 56.4467 99.7853 56.42C99.6586 56.3867 99.5386 56.3433 99.4253 56.29C99.3453 56.3633 99.272 56.4433 99.2053 56.53C99.1453 56.6167 99.1153 56.73 99.1153 56.87C99.1153 57.0233 99.1753 57.15 99.2953 57.25C99.422 57.35 99.6486 57.4 99.9753 57.4H100.915C101.482 57.4 101.905 57.4933 102.185 57.68C102.472 57.86 102.615 58.1533 102.615 58.56C102.615 58.86 102.515 59.1367 102.315 59.39C102.115 59.6433 101.829 59.8467 101.455 60C101.089 60.16 100.655 60.24 100.155 60.24ZM100.155 55.91C100.342 55.91 100.512 55.8633 100.665 55.77C100.825 55.67 100.952 55.5333 101.045 55.36C101.139 55.1867 101.185 54.9833 101.185 54.75C101.185 54.39 101.085 54.1133 100.885 53.92C100.685 53.72 100.442 53.62 100.155 53.62C99.8686 53.62 99.6253 53.72 99.4253 53.92C99.2253 54.1133 99.1253 54.39 99.1253 54.75C99.1253 54.9833 99.172 55.1867 99.2653 55.36C99.3586 55.5333 99.482 55.67 99.6353 55.77C99.7953 55.8633 99.9686 55.91 100.155 55.91ZM100.275 59.67C100.582 59.67 100.849 59.6233 101.075 59.53C101.309 59.4367 101.489 59.3133 101.615 59.16C101.749 59.0067 101.815 58.8467 101.815 58.68C101.815 58.4533 101.729 58.2967 101.555 58.21C101.389 58.1233 101.149 58.08 100.835 58.08H99.9953C99.902 58.08 99.7986 58.0733 99.6853 58.06C99.5786 58.0467 99.472 58.0267 99.3653 58C99.1853 58.1267 99.0553 58.26 98.9753 58.4C98.902 58.54 98.8653 58.68 98.8653 58.82C98.8653 59.08 98.9886 59.2867 99.2353 59.44C99.4886 59.5933 99.8353 59.67 100.275 59.67ZM105.388 58.12C104.954 58.12 104.558 58.02 104.198 57.82C103.844 57.6133 103.564 57.3233 103.358 56.95C103.151 56.57 103.048 56.11 103.048 55.57C103.048 55.0433 103.154 54.59 103.368 54.21C103.581 53.83 103.854 53.5367 104.188 53.33C104.521 53.1233 104.874 53.02 105.248 53.02C105.661 53.02 106.011 53.1167 106.298 53.31C106.591 53.4967 106.811 53.76 106.958 54.1C107.104 54.44 107.178 54.84 107.178 55.3C107.178 55.3867 107.174 55.47 107.168 55.55C107.168 55.63 107.158 55.71 107.138 55.79H103.638V55.14H106.438C106.438 54.6733 106.334 54.3167 106.128 54.07C105.928 53.8167 105.638 53.69 105.258 53.69C105.038 53.69 104.821 53.7533 104.608 53.88C104.394 54 104.218 54.1967 104.078 54.47C103.944 54.7433 103.878 55.1067 103.878 55.56C103.878 55.9733 103.948 56.32 104.088 56.6C104.234 56.88 104.431 57.0933 104.678 57.24C104.924 57.38 105.194 57.45 105.488 57.45C105.721 57.45 105.938 57.4167 106.138 57.35C106.344 57.2833 106.531 57.1933 106.698 57.08L106.998 57.62C106.784 57.7667 106.544 57.8867 106.278 57.98C106.018 58.0733 105.721 58.12 105.388 58.12ZM109.811 58.09C109.298 58.09 108.938 57.94 108.731 57.64C108.524 57.34 108.421 56.95 108.421 56.47V53.81H107.701V53.19L108.461 53.14L108.561 51.58H109.251V53.14H110.571V53.81H109.251V56.48C109.251 56.7733 109.304 57.0033 109.411 57.17C109.524 57.3367 109.721 57.42 110.001 57.42C110.088 57.42 110.178 57.4133 110.271 57.4C110.364 57.38 110.458 57.3467 110.551 57.3L110.731 57.88C110.604 57.94 110.461 57.99 110.301 58.03C110.141 58.07 109.978 58.09 109.811 58.09ZM115.192 58.09C114.678 58.09 114.318 57.94 114.112 57.64C113.905 57.34 113.802 56.95 113.802 56.47V53.81H113.082V53.19L113.842 53.14L113.942 51.58H114.632V53.14H115.952V53.81H114.632V56.48C114.632 56.7733 114.685 57.0033 114.792 57.17C114.905 57.3367 115.102 57.42 115.382 57.42C115.468 57.42 115.558 57.4133 115.652 57.4C115.745 57.38 115.838 57.3467 115.932 57.3L116.112 57.88C115.985 57.94 115.842 57.99 115.682 58.03C115.522 58.07 115.358 58.09 115.192 58.09ZM117.041 58V53.14H117.721L117.791 54.02H117.821C117.981 53.7133 118.181 53.47 118.421 53.29C118.661 53.11 118.921 53.02 119.201 53.02C119.307 53.02 119.401 53.0267 119.481 53.04C119.561 53.0533 119.641 53.08 119.721 53.12L119.541 53.82C119.467 53.8 119.397 53.7867 119.331 53.78C119.271 53.7667 119.191 53.76 119.091 53.76C118.884 53.76 118.667 53.8433 118.441 54.01C118.221 54.1767 118.027 54.4667 117.861 54.88V58H117.041ZM121.393 58.12C121.126 58.12 120.883 58.0667 120.663 57.96C120.45 57.8467 120.28 57.69 120.153 57.49C120.026 57.2833 119.963 57.0333 119.963 56.74C119.963 56.1933 120.203 55.78 120.683 55.5C121.163 55.22 121.923 55.0233 122.963 54.91C122.956 54.71 122.923 54.5167 122.863 54.33C122.81 54.1433 122.71 53.9933 122.563 53.88C122.416 53.7667 122.213 53.71 121.953 53.71C121.673 53.71 121.41 53.7633 121.163 53.87C120.916 53.97 120.696 54.0833 120.503 54.21L120.183 53.65C120.33 53.55 120.503 53.4533 120.703 53.36C120.903 53.26 121.12 53.18 121.353 53.12C121.586 53.0533 121.833 53.02 122.093 53.02C122.486 53.02 122.806 53.1033 123.053 53.27C123.306 53.43 123.49 53.66 123.603 53.96C123.723 54.26 123.783 54.6133 123.783 55.02V58H123.103L123.033 57.42H123.003C122.77 57.6133 122.52 57.78 122.253 57.92C121.986 58.0533 121.7 58.12 121.393 58.12ZM121.623 57.44C121.863 57.44 122.086 57.3867 122.293 57.28C122.506 57.1733 122.73 57.0167 122.963 56.81V55.5C122.416 55.5667 121.983 55.6533 121.663 55.76C121.35 55.86 121.123 55.9867 120.983 56.14C120.843 56.2933 120.773 56.4767 120.773 56.69C120.773 56.9567 120.856 57.15 121.023 57.27C121.19 57.3833 121.39 57.44 121.623 57.44ZM127.242 58.12C126.809 58.12 126.419 58.02 126.072 57.82C125.726 57.62 125.452 57.33 125.252 56.95C125.052 56.57 124.952 56.1133 124.952 55.58C124.952 55.0333 125.059 54.57 125.272 54.19C125.492 53.81 125.779 53.52 126.132 53.32C126.492 53.12 126.879 53.02 127.292 53.02C127.612 53.02 127.886 53.0733 128.112 53.18C128.346 53.2867 128.546 53.4233 128.712 53.59L128.302 54.1C128.182 53.98 128.039 53.8867 127.872 53.82C127.712 53.7467 127.529 53.71 127.322 53.71C127.036 53.71 126.776 53.79 126.542 53.95C126.316 54.1033 126.136 54.32 126.002 54.6C125.869 54.88 125.802 55.2067 125.802 55.58C125.802 55.9467 125.866 56.27 125.992 56.55C126.119 56.83 126.296 57.05 126.522 57.21C126.749 57.3633 127.012 57.44 127.312 57.44C127.539 57.44 127.749 57.3967 127.942 57.31C128.136 57.2233 128.302 57.1133 128.442 56.98L128.802 57.48C128.596 57.6733 128.362 57.83 128.102 57.95C127.842 58.0633 127.556 58.12 127.242 58.12ZM129.873 58V50.88H130.693V55.69H130.713L132.773 53.14H133.693L132.073 55.1L133.913 58H133.013L131.593 55.66L130.693 56.72V58H129.873ZM136.618 58.12C136.185 58.12 135.788 58.02 135.428 57.82C135.075 57.6133 134.795 57.3233 134.588 56.95C134.381 56.57 134.278 56.11 134.278 55.57C134.278 55.0433 134.385 54.59 134.598 54.21C134.811 53.83 135.085 53.5367 135.418 53.33C135.751 53.1233 136.105 53.02 136.478 53.02C136.891 53.02 137.241 53.1167 137.528 53.31C137.821 53.4967 138.041 53.76 138.188 54.1C138.335 54.44 138.408 54.84 138.408 55.3C138.408 55.3867 138.405 55.47 138.398 55.55C138.398 55.63 138.388 55.71 138.368 55.79H134.868V55.14H137.668C137.668 54.6733 137.565 54.3167 137.358 54.07C137.158 53.8167 136.868 53.69 136.488 53.69C136.268 53.69 136.051 53.7533 135.838 53.88C135.625 54 135.448 54.1967 135.308 54.47C135.175 54.7433 135.108 55.1067 135.108 55.56C135.108 55.9733 135.178 56.32 135.318 56.6C135.465 56.88 135.661 57.0933 135.908 57.24C136.155 57.38 136.425 57.45 136.718 57.45C136.951 57.45 137.168 57.4167 137.368 57.35C137.575 57.2833 137.761 57.1933 137.928 57.08L138.228 57.62C138.015 57.7667 137.775 57.8867 137.508 57.98C137.248 58.0733 136.951 58.12 136.618 58.12ZM139.609 58V53.14H140.289L140.359 54.02H140.389C140.549 53.7133 140.749 53.47 140.989 53.29C141.229 53.11 141.489 53.02 141.769 53.02C141.876 53.02 141.969 53.0267 142.049 53.04C142.129 53.0533 142.209 53.08 142.289 53.12L142.109 53.82C142.036 53.8 141.966 53.7867 141.899 53.78C141.839 53.7667 141.759 53.76 141.659 53.76C141.452 53.76 141.236 53.8433 141.009 54.01C140.789 54.1767 140.596 54.4667 140.429 54.88V58H139.609ZM146.198 58.12C145.931 58.12 145.688 58.0667 145.468 57.96C145.254 57.8467 145.084 57.69 144.958 57.49C144.831 57.2833 144.768 57.0333 144.768 56.74C144.768 56.1933 145.008 55.78 145.488 55.5C145.968 55.22 146.728 55.0233 147.768 54.91C147.761 54.71 147.728 54.5167 147.668 54.33C147.614 54.1433 147.514 53.9933 147.368 53.88C147.221 53.7667 147.018 53.71 146.758 53.71C146.478 53.71 146.214 53.7633 145.968 53.87C145.721 53.97 145.501 54.0833 145.308 54.21L144.988 53.65C145.134 53.55 145.308 53.4533 145.508 53.36C145.708 53.26 145.924 53.18 146.158 53.12C146.391 53.0533 146.638 53.02 146.898 53.02C147.291 53.02 147.611 53.1033 147.858 53.27C148.111 53.43 148.294 53.66 148.408 53.96C148.528 54.26 148.588 54.6133 148.588 55.02V58H147.908L147.838 57.42H147.808C147.574 57.6133 147.324 57.78 147.058 57.92C146.791 58.0533 146.504 58.12 146.198 58.12ZM146.428 57.44C146.668 57.44 146.891 57.3867 147.098 57.28C147.311 57.1733 147.534 57.0167 147.768 56.81V55.5C147.221 55.5667 146.788 55.6533 146.468 55.76C146.154 55.86 145.928 55.9867 145.788 56.14C145.648 56.2933 145.578 56.4767 145.578 56.69C145.578 56.9567 145.661 57.15 145.828 57.27C145.994 57.3833 146.194 57.44 146.428 57.44ZM150.117 60.05V53.14H150.797L150.867 53.7H150.897C151.117 53.5133 151.36 53.3533 151.627 53.22C151.894 53.0867 152.167 53.02 152.447 53.02C152.86 53.02 153.21 53.1233 153.497 53.33C153.784 53.53 154 53.8167 154.147 54.19C154.294 54.5567 154.367 54.9933 154.367 55.5C154.367 56.0467 154.267 56.5167 154.067 56.91C153.874 57.3033 153.617 57.6033 153.297 57.81C152.977 58.0167 152.634 58.12 152.267 58.12C152.047 58.12 151.824 58.07 151.597 57.97C151.37 57.87 151.144 57.7333 150.917 57.56L150.937 58.41V60.05H150.117ZM152.127 57.43C152.394 57.43 152.63 57.3533 152.837 57.2C153.05 57.0467 153.217 56.8267 153.337 56.54C153.457 56.2467 153.517 55.9 153.517 55.5C153.517 55.1467 153.474 54.8367 153.387 54.57C153.3 54.2967 153.164 54.0867 152.977 53.94C152.79 53.7867 152.544 53.71 152.237 53.71C152.037 53.71 151.83 53.7667 151.617 53.88C151.404 53.9867 151.177 54.15 150.937 54.37V56.92C151.164 57.1067 151.377 57.24 151.577 57.32C151.784 57.3933 151.967 57.43 152.127 57.43ZM155.664 60.05V53.14H156.344L156.414 53.7H156.444C156.664 53.5133 156.907 53.3533 157.174 53.22C157.44 53.0867 157.714 53.02 157.994 53.02C158.407 53.02 158.757 53.1233 159.044 53.33C159.33 53.53 159.547 53.8167 159.694 54.19C159.84 54.5567 159.914 54.9933 159.914 55.5C159.914 56.0467 159.814 56.5167 159.614 56.91C159.42 57.3033 159.164 57.6033 158.844 57.81C158.524 58.0167 158.18 58.12 157.814 58.12C157.594 58.12 157.37 58.07 157.144 57.97C156.917 57.87 156.69 57.7333 156.464 57.56L156.484 58.41V60.05H155.664ZM157.674 57.43C157.94 57.43 158.177 57.3533 158.384 57.2C158.597 57.0467 158.764 56.8267 158.884 56.54C159.004 56.2467 159.064 55.9 159.064 55.5C159.064 55.1467 159.02 54.8367 158.934 54.57C158.847 54.2967 158.71 54.0867 158.524 53.94C158.337 53.7867 158.09 53.71 157.784 53.71C157.584 53.71 157.377 53.7667 157.164 53.88C156.95 53.9867 156.724 54.15 156.484 54.37V56.92C156.71 57.1067 156.924 57.24 157.124 57.32C157.33 57.3933 157.514 57.43 157.674 57.43ZM162.081 58.09C161.874 58.09 161.707 58.05 161.581 57.97C161.454 57.8833 161.361 57.76 161.301 57.6C161.241 57.4333 161.211 57.2333 161.211 57V50.88H162.031V57.06C162.031 57.1933 162.054 57.2867 162.101 57.34C162.147 57.3867 162.204 57.41 162.271 57.41C162.297 57.41 162.321 57.41 162.341 57.41C162.367 57.4033 162.401 57.3967 162.441 57.39L162.561 58.01C162.501 58.03 162.431 58.0467 162.351 58.06C162.277 58.08 162.187 58.09 162.081 58.09ZM163.759 58V53.14H164.579V58H163.759ZM164.169 52.14C164.009 52.14 163.876 52.09 163.769 51.99C163.669 51.89 163.619 51.76 163.619 51.6C163.619 51.44 163.669 51.31 163.769 51.21C163.876 51.11 164.009 51.06 164.169 51.06C164.329 51.06 164.459 51.11 164.559 51.21C164.666 51.31 164.719 51.44 164.719 51.6C164.719 51.76 164.666 51.89 164.559 51.99C164.459 52.09 164.329 52.14 164.169 52.14ZM168.15 58.12C167.717 58.12 167.327 58.02 166.98 57.82C166.634 57.62 166.36 57.33 166.16 56.95C165.96 56.57 165.86 56.1133 165.86 55.58C165.86 55.0333 165.967 54.57 166.18 54.19C166.4 53.81 166.687 53.52 167.04 53.32C167.4 53.12 167.787 53.02 168.2 53.02C168.52 53.02 168.794 53.0733 169.02 53.18C169.254 53.2867 169.454 53.4233 169.62 53.59L169.21 54.1C169.09 53.98 168.947 53.8867 168.78 53.82C168.62 53.7467 168.437 53.71 168.23 53.71C167.944 53.71 167.684 53.79 167.45 53.95C167.224 54.1033 167.044 54.32 166.91 54.6C166.777 54.88 166.71 55.2067 166.71 55.58C166.71 55.9467 166.774 56.27 166.9 56.55C167.027 56.83 167.204 57.05 167.43 57.21C167.657 57.3633 167.92 57.44 168.22 57.44C168.447 57.44 168.657 57.3967 168.85 57.31C169.044 57.2233 169.21 57.1133 169.35 56.98L169.71 57.48C169.504 57.6733 169.27 57.83 169.01 57.95C168.75 58.0633 168.464 58.12 168.15 58.12ZM171.803 58.12C171.537 58.12 171.293 58.0667 171.073 57.96C170.86 57.8467 170.69 57.69 170.563 57.49C170.437 57.2833 170.373 57.0333 170.373 56.74C170.373 56.1933 170.613 55.78 171.093 55.5C171.573 55.22 172.333 55.0233 173.373 54.91C173.367 54.71 173.333 54.5167 173.273 54.33C173.22 54.1433 173.12 53.9933 172.973 53.88C172.827 53.7667 172.623 53.71 172.363 53.71C172.083 53.71 171.82 53.7633 171.573 53.87C171.327 53.97 171.107 54.0833 170.913 54.21L170.593 53.65C170.74 53.55 170.913 53.4533 171.113 53.36C171.313 53.26 171.53 53.18 171.763 53.12C171.997 53.0533 172.243 53.02 172.503 53.02C172.897 53.02 173.217 53.1033 173.463 53.27C173.717 53.43 173.9 53.66 174.013 53.96C174.133 54.26 174.193 54.6133 174.193 55.02V58H173.513L173.443 57.42H173.413C173.18 57.6133 172.93 57.78 172.663 57.92C172.397 58.0533 172.11 58.12 171.803 58.12ZM172.033 57.44C172.273 57.44 172.497 57.3867 172.703 57.28C172.917 57.1733 173.14 57.0167 173.373 56.81V55.5C172.827 55.5667 172.393 55.6533 172.073 55.76C171.76 55.86 171.533 55.9867 171.393 56.14C171.253 56.2933 171.183 56.4767 171.183 56.69C171.183 56.9567 171.267 57.15 171.433 57.27C171.6 57.3833 171.8 57.44 172.033 57.44ZM177.116 58.09C176.602 58.09 176.242 57.94 176.036 57.64C175.829 57.34 175.726 56.95 175.726 56.47V53.81H175.006V53.19L175.766 53.14L175.866 51.58H176.556V53.14H177.876V53.81H176.556V56.48C176.556 56.7733 176.609 57.0033 176.716 57.17C176.829 57.3367 177.026 57.42 177.306 57.42C177.392 57.42 177.482 57.4133 177.576 57.4C177.669 57.38 177.762 57.3467 177.856 57.3L178.036 57.88C177.909 57.94 177.766 57.99 177.606 58.03C177.446 58.07 177.282 58.09 177.116 58.09ZM178.965 58V53.14H179.785V58H178.965ZM179.375 52.14C179.215 52.14 179.081 52.09 178.975 51.99C178.875 51.89 178.825 51.76 178.825 51.6C178.825 51.44 178.875 51.31 178.975 51.21C179.081 51.11 179.215 51.06 179.375 51.06C179.535 51.06 179.665 51.11 179.765 51.21C179.871 51.31 179.925 51.44 179.925 51.6C179.925 51.76 179.871 51.89 179.765 51.99C179.665 52.09 179.535 52.14 179.375 52.14ZM183.315 58.12C182.922 58.12 182.552 58.02 182.205 57.82C181.865 57.62 181.589 57.33 181.375 56.95C181.169 56.57 181.065 56.1133 181.065 55.58C181.065 55.0333 181.169 54.57 181.375 54.19C181.589 53.81 181.865 53.52 182.205 53.32C182.552 53.12 182.922 53.02 183.315 53.02C183.715 53.02 184.085 53.12 184.425 53.32C184.765 53.52 185.039 53.81 185.245 54.19C185.459 54.57 185.565 55.0333 185.565 55.58C185.565 56.1133 185.459 56.57 185.245 56.95C185.039 57.33 184.765 57.62 184.425 57.82C184.085 58.02 183.715 58.12 183.315 58.12ZM183.315 57.44C183.595 57.44 183.842 57.3633 184.055 57.21C184.269 57.05 184.432 56.83 184.545 56.55C184.659 56.27 184.715 55.9467 184.715 55.58C184.715 55.2067 184.659 54.88 184.545 54.6C184.432 54.3133 184.269 54.0933 184.055 53.94C183.842 53.78 183.595 53.7 183.315 53.7C183.035 53.7 182.789 53.78 182.575 53.94C182.369 54.0933 182.205 54.3133 182.085 54.6C181.972 54.88 181.915 55.2067 181.915 55.58C181.915 55.9467 181.972 56.27 182.085 56.55C182.205 56.83 182.369 57.05 182.575 57.21C182.789 57.3633 183.035 57.44 183.315 57.44ZM186.845 58V53.14H187.525L187.595 53.84H187.625C187.859 53.6067 188.105 53.4133 188.365 53.26C188.625 53.1 188.922 53.02 189.255 53.02C189.769 53.02 190.142 53.1833 190.375 53.51C190.615 53.83 190.735 54.3 190.735 54.92V58H189.915V55.03C189.915 54.57 189.842 54.24 189.695 54.04C189.555 53.8333 189.322 53.73 188.995 53.73C188.749 53.73 188.525 53.7933 188.325 53.92C188.132 54.0467 187.912 54.2333 187.665 54.48V58H186.845ZM192.744 58.12C192.584 58.12 192.444 58.0633 192.324 57.95C192.204 57.83 192.144 57.68 192.144 57.5C192.144 57.3067 192.204 57.1533 192.324 57.04C192.444 56.92 192.584 56.86 192.744 56.86C192.911 56.86 193.051 56.92 193.164 57.04C193.277 57.1533 193.334 57.3067 193.334 57.5C193.334 57.68 193.277 57.83 193.164 57.95C193.051 58.0633 192.911 58.12 192.744 58.12ZM199.786 58.8V51.44H200.626V58.8H199.786ZM198.916 55.74C198.43 55.74 197.996 55.6633 197.616 55.51C197.236 55.3567 196.936 55.12 196.716 54.8C196.503 54.48 196.396 54.07 196.396 53.57C196.396 53.05 196.5 52.6333 196.706 52.32C196.92 52.0067 197.206 51.7833 197.566 51.65C197.933 51.51 198.346 51.44 198.806 51.44H199.246V55.74H198.916Z" fill="white"/>
</svg>
